# This file uses centimeters as units for non-parametric coordinates.

mtllib Seashell.mtl
g default
v -98.934395 0.559597 41.492981
v -87.645218 0.559597 41.492981
v -97.577591 0.559602 31.970335
v -89.002007 0.559602 31.970335
v -105.490051 2.884376 40.291557
v -102.393875 2.884376 31.970335
v -81.089569 2.884376 40.291557
v -84.185745 2.884376 31.970335
v -98.934395 2.884376 48.811638
v -87.645218 2.884376 48.811638
v -96.415390 2.884586 26.418201
v -90.164207 2.884586 26.418201
v -99.111198 -0.000003 41.614452
v -87.468414 -0.000003 41.614452
v -88.867699 0.000001 31.793533
v -97.711899 0.000001 31.793533
v -102.679039 2.884376 31.793533
v -105.872192 2.884376 40.375397
v -80.707428 2.884376 40.375397
v -83.900581 2.884376 31.793533
v -99.111198 2.884376 49.162346
v -87.468414 2.884376 49.162346
v -90.066307 2.884376 26.067493
v -96.513290 2.884376 26.067493
v -98.934395 17.332788 31.486481
v -87.645218 17.332788 31.486481
v -97.577591 9.145554 26.602909
v -89.002007 9.145554 26.602909
v -105.490051 14.745657 33.918224
v -102.393875 7.806688 29.325466
v -81.089569 14.745657 33.918224
v -84.185745 7.806688 29.325466
v -98.934395 21.850454 38.620739
v -87.645218 21.850454 38.620739
v -99.111198 17.558630 31.365353
v -87.468414 17.558630 31.365353
v -88.867699 9.122667 26.317150
v -97.711899 9.122667 26.317150
v -102.679039 7.659254 29.227882
v -105.872192 14.815569 33.964500
v -80.707428 14.815569 33.964500
v -83.900581 7.659254 29.227882
v -99.111198 22.142904 38.814308
v -87.468414 22.142904 38.814308
v -96.510529 0.263925 40.637020
v -87.345497 0.825409 36.782566
v -95.510612 2.234231 38.705856
v -88.454346 2.234231 35.835732
v -97.760803 3.012584 32.263870
v -91.339622 3.012584 29.652065
v -99.682182 1.342476 31.176945
v -90.722443 2.044212 27.983398
v -90.764801 0.071720 40.264481
v -91.515411 1.775153 38.419083
v -94.945267 3.012584 29.986702
v -95.781342 1.936953 28.178751
v -99.566902 0.788227 36.419781
v -97.723862 2.905782 35.948273
v -88.794304 2.905782 32.316189
v -87.374573 1.275026 31.317028
v -94.403557 2.751238 36.846424
v -92.245026 2.567664 36.625309
v -95.671776 3.369771 33.396793
v -94.072250 3.393853 32.133034
v -95.636307 3.160738 35.369759
v -90.544998 2.751238 35.276962
v -90.692978 3.160738 33.359066
v -92.044739 3.369771 31.921501
vt 0.000037 0.000062
vt 0.999950 0.000050
vt 0.000072 0.999953
vt 0.999946 0.999935
vt 0.000050 0.000078
vt 0.999963 0.000098
vt 0.999946 0.999906
vt 0.000072 0.999917
vt 0.000037 0.000098
vt 0.999950 0.000078
vt 0.999946 0.999898
vt 0.000072 0.999926
vt 0.000050 0.000092
vt 0.999963 0.000115
vt 1.000000 1.000000
vt 0.000000 1.000000
vt 0.000050 0.000092
vt 0.999963 0.000115
vt 0.000000 0.000000
vt 0.999908 0.002736
vt 0.445866 4.264810
vt 0.000092 0.002736
vt 1.000000 0.000000
vt 0.554134 4.264802
vt 0.000092 0.002736
vt 1.000000 0.000000
vt 0.554134 4.264810
vt 0.000000 0.000000
vt 0.999908 0.002736
vt 0.445866 4.264802
vt 0.000037 0.000062
vt 0.999950 0.000050
vt 0.999946 0.999935
vt 0.000072 0.999953
vt 0.000050 0.000078
vt 0.999963 0.000098
vt 0.999946 0.999906
vt 0.000072 0.999917
vt 0.000037 0.000098
vt 0.999950 0.000078
vt 0.999946 0.999898
vt 0.000072 0.999926
vt 0.000050 0.000092
vt 0.999963 0.000115
vt 1.000000 1.000000
vt 0.000000 1.000000
vt 0.000050 0.000092
vt 0.999963 0.000115
vt 1.000000 1.000000
vt 0.000000 1.000000
vt 0.000000 0.000000
vt 0.999908 0.002736
vt 0.445866 4.264810
vt 0.000092 0.002736
vt 1.000000 0.000000
vt 0.554134 4.264802
vt 0.000092 0.002736
vt 1.000000 0.000000
vt 0.554134 4.264810
vt 0.000000 0.000000
vt 0.999908 0.002736
vt 0.445866 4.264802
vt 0.999946 0.999906
vt 0.000072 0.999917
vt 0.999946 0.999898
vt 0.000072 0.999926
vt 1.000000 1.000000
vt 0.000000 1.000000
vt 1.000000 1.000000
vt 0.000000 1.000000
vt 0.445866 4.264810
vt 0.000000 0.000000
vt 1.000000 0.000000
vt 0.554134 4.264802
vt 1.000000 0.000000
vt 0.554134 4.264810
vt 0.445866 4.264802
vt 0.000000 0.000000
vt 0.000037 0.000062
vt 0.999950 0.000050
vt 0.999946 0.999935
vt 0.000072 0.999953
vt 0.000050 0.000078
vt 0.999963 0.000098
vt 0.999946 0.999906
vt 0.000072 0.999917
vt 0.000037 0.000098
vt 0.999950 0.000078
vt 0.999946 0.999898
vt 0.000072 0.999926
vt 0.000050 0.000092
vt 0.999963 0.000115
vt 1.000000 1.000000
vt 0.000000 1.000000
vt 0.000050 0.000092
vt 0.999963 0.000115
vt 1.000000 1.000000
vt 0.000000 1.000000
vt 0.000000 0.000000
vt 0.999908 0.002736
vt 0.445866 4.264810
vt 0.000092 0.002736
vt 1.000000 0.000000
vt 0.554134 4.264802
vt 0.000092 0.002736
vt 1.000000 0.000000
vt 0.554134 4.264810
vt 0.000000 0.000000
vt 0.999908 0.002736
vt 0.445866 4.264802
vt 0.000037 0.000062
vt 0.000072 0.999953
vt 0.999946 0.999935
vt 0.999950 0.000050
vt 0.000050 0.000078
vt 0.000072 0.999917
vt 0.999946 0.999906
vt 0.999963 0.000098
vt 0.000037 0.000098
vt 0.000072 0.999926
vt 0.999946 0.999898
vt 0.999950 0.000078
vt 0.000050 0.000092
vt 0.000000 1.000000
vt 1.000000 1.000000
vt 0.999963 0.000115
vt 0.000050 0.000092
vt 0.000000 1.000000
vt 1.000000 1.000000
vt 0.999963 0.000115
vt 0.000000 0.000000
vt 0.445866 4.264810
vt 0.999908 0.002736
vt 0.000092 0.002736
vt 0.554134 4.264802
vt 1.000000 0.000000
vt 0.000092 0.002736
vt 0.554134 4.264810
vt 1.000000 0.000000
vt 0.000000 0.000000
vt 0.445866 4.264802
vt 0.999908 0.002736
vt 0.999946 0.999906
vt 0.000072 0.999917
vt 0.999946 0.999898
vt 0.000072 0.999926
vt 1.000000 1.000000
vt 0.000000 1.000000
vt 0.445866 4.264810
vt 0.000000 0.000000
vt 1.000000 0.000000
vt 0.554134 4.264802
vt 1.000000 0.000000
vt 0.554134 4.264810
vt 0.445866 4.264802
vt 0.000000 0.000000
vt 0.375000 0.000000
vt 0.500000 0.000000
vt 0.500000 0.250000
vt 0.375000 0.250000
vt 0.375000 0.500000
vt 0.500000 0.500000
vt 0.500000 0.750000
vt 0.375000 0.750000
vt 0.750000 0.250000
vt 0.750000 0.000000
vt 0.875000 0.000000
vt 0.875000 0.250000
vt 0.125000 0.000000
vt 0.250000 0.000000
vt 0.250000 0.250000
vt 0.125000 0.250000
vt 0.625000 0.000000
vt 0.625000 0.250000
vt 0.625000 0.500000
vt 0.625000 0.750000
vt 0.000000 0.000000
vt 1.000000 0.000000
vt 1.000000 1.000000
vt 0.000000 1.000000
vt 0.000000 0.000000
vt 1.000000 0.000000
vt 1.000000 1.000000
vt 0.000000 1.000000
vt 0.000000 0.000000
vt 1.000000 0.000000
vt 1.000000 1.000000
vt 0.000000 1.000000
vt 0.000000 0.000000
vt 1.000000 0.000000
vt 1.000000 1.000000
vt 0.000000 1.000000
vt 0.000000 0.000000
vt 1.000000 0.000000
vt 1.000000 1.000000
vt 0.000000 1.000000
vt 0.000000 0.000000
vt 1.000000 0.000000
vt 1.000000 1.000000
vt 0.000000 1.000000
vt 0.000000 0.000000
vt 1.000000 0.000000
vt 1.000000 1.000000
vt 0.000000 1.000000
vt 0.000000 0.000000
vt 1.000000 0.000000
vt 1.000000 1.000000
vt 0.000000 1.000000
vn 0.000000 -1.000000 -0.000000
vn 0.000000 -1.000000 -0.000000
vn 0.000000 -1.000000 -0.000000
vn 0.000000 -1.000000 -0.000000
vn -0.429680 -0.896592 -0.107228
vn -0.429680 -0.896592 -0.107228
vn -0.429680 -0.896592 -0.107228
vn -0.429680 -0.896592 -0.107228
vn 0.429682 -0.896591 -0.107228
vn 0.429682 -0.896591 -0.107228
vn 0.429682 -0.896591 -0.107228
vn 0.429682 -0.896591 -0.107228
vn 0.000000 -0.934117 0.356967
vn 0.000000 -0.934117 0.356967
vn 0.000000 -0.934117 0.356967
vn 0.000000 -0.934117 0.356967
vn 0.000000 -0.893091 -0.449876
vn 0.000000 -0.893091 -0.449876
vn 0.000000 -0.893091 -0.449876
vn 0.000000 -0.893091 -0.449876
vn -0.420847 -0.847367 0.323815
vn -0.420847 -0.847367 0.323815
vn -0.420847 -0.847367 0.323815
vn 0.420848 -0.847367 0.323815
vn 0.420848 -0.847367 0.323815
vn 0.420848 -0.847367 0.323815
vn -0.441725 -0.760684 -0.475646
vn -0.441725 -0.760684 -0.475646
vn -0.441725 -0.760684 -0.475646
vn 0.441725 -0.760685 -0.475644
vn 0.441725 -0.760685 -0.475644
vn 0.441725 -0.760685 -0.475644
vn 0.000000 1.000000 0.000000
vn 0.000000 1.000000 0.000000
vn 0.000000 1.000000 0.000000
vn 0.000000 1.000000 0.000000
vn 0.368508 0.925065 0.091962
vn 0.368508 0.925065 0.091962
vn 0.368508 0.925065 0.091962
vn 0.368508 0.925065 0.091962
vn -0.368509 0.925065 0.091962
vn -0.368509 0.925065 0.091962
vn -0.368509 0.925064 0.091962
vn -0.368509 0.925065 0.091962
vn 0.000000 0.953072 -0.302744
vn 0.000000 0.953072 -0.302744
vn 0.000000 0.953072 -0.302744
vn 0.000000 0.953072 -0.302744
vn 0.000000 0.922392 0.386256
vn 0.000000 0.922392 0.386256
vn 0.000000 0.922392 0.386256
vn 0.000000 0.922392 0.386256
vn 0.366141 0.886890 -0.281722
vn 0.366141 0.886890 -0.281722
vn 0.366141 0.886890 -0.281722
vn -0.366142 0.886890 -0.281722
vn -0.366142 0.886890 -0.281722
vn -0.366142 0.886890 -0.281722
vn 0.393699 0.815633 0.423962
vn 0.393699 0.815633 0.423962
vn 0.393699 0.815633 0.423962
vn -0.393700 0.815633 0.423961
vn -0.393700 0.815633 0.423961
vn -0.393700 0.815633 0.423961
vn -0.000001 1.000000 0.000000
vn -0.000001 1.000000 0.000000
vn -0.000001 1.000000 0.000000
vn -0.000001 1.000000 0.000000
vn 0.000001 1.000000 0.000000
vn 0.000001 1.000000 0.000000
vn 0.000001 1.000000 0.000000
vn 0.000001 1.000000 0.000000
vn 0.000000 1.000000 0.000001
vn 0.000000 1.000000 0.000001
vn 0.000000 1.000000 0.000001
vn 0.000000 1.000000 0.000001
vn -0.000001 1.000000 0.000000
vn -0.000001 1.000000 0.000000
vn -0.000001 1.000000 0.000000
vn -0.000001 1.000000 0.000000
vn 0.000001 1.000000 0.000000
vn 0.000001 1.000000 0.000000
vn 0.000001 1.000000 0.000000
vn 0.000001 1.000000 0.000000
vn -0.000231 1.000000 -0.000230
vn -0.000231 1.000000 -0.000230
vn -0.000231 1.000000 -0.000230
vn -0.000231 1.000000 -0.000230
vn 0.000231 1.000000 -0.000230
vn 0.000231 1.000000 -0.000230
vn 0.000231 1.000000 -0.000230
vn 0.000231 1.000000 -0.000230
vn 0.000000 0.513495 -0.858093
vn 0.000000 0.513495 -0.858093
vn 0.000000 0.513495 -0.858093
vn 0.000000 0.513495 -0.858093
vn -0.498305 0.350790 -0.792867
vn -0.498305 0.350790 -0.792867
vn -0.498305 0.350790 -0.792867
vn -0.498305 0.350790 -0.792867
vn 0.498306 0.350791 -0.792867
vn 0.498306 0.350790 -0.792866
vn 0.498306 0.350790 -0.792866
vn 0.498306 0.350790 -0.792866
vn 0.000000 0.851643 -0.524123
vn 0.000000 0.851643 -0.524123
vn 0.000000 0.851643 -0.524123
vn 0.000000 0.851643 -0.524123
vn 0.000000 0.039988 -0.999200
vn 0.000000 0.039988 -0.999200
vn 0.000000 0.039988 -0.999200
vn 0.000000 0.039988 -0.999200
vn -0.479908 0.747163 -0.459822
vn -0.479908 0.747163 -0.459822
vn -0.479908 0.747163 -0.459822
vn 0.479909 0.747162 -0.459822
vn 0.479909 0.747162 -0.459822
vn 0.479909 0.747162 -0.459822
vn -0.491540 -0.059674 -0.868808
vn -0.491540 -0.059674 -0.868808
vn -0.491540 -0.059674 -0.868808
vn 0.491541 -0.059674 -0.868807
vn 0.491541 -0.059674 -0.868807
vn 0.491541 -0.059674 -0.868807
vn 0.000000 -0.512276 0.858821
vn 0.000000 -0.512276 0.858821
vn 0.000000 -0.512276 0.858821
vn 0.000000 -0.512276 0.858821
vn 0.485095 -0.357232 0.798165
vn 0.485095 -0.357232 0.798166
vn 0.485095 -0.357232 0.798166
vn 0.485095 -0.357232 0.798165
vn -0.485097 -0.357230 0.798165
vn -0.485097 -0.357230 0.798165
vn -0.485097 -0.357230 0.798165
vn -0.485097 -0.357230 0.798165
vn 0.000000 -0.844856 0.534993
vn 0.000000 -0.844856 0.534993
vn 0.000000 -0.844856 0.534993
vn 0.000000 -0.844856 0.534993
vn 0.000000 -0.029489 0.999565
vn 0.000000 -0.029489 0.999565
vn 0.000000 -0.029489 0.999565
vn 0.000000 -0.029489 0.999565
vn 0.469579 -0.745915 0.472341
vn 0.469579 -0.745915 0.472341
vn 0.469579 -0.745915 0.472341
vn -0.469578 -0.745917 0.472340
vn -0.469578 -0.745916 0.472340
vn -0.469578 -0.745916 0.472340
vn 0.477829 0.062849 0.876202
vn 0.477829 0.062849 0.876202
vn 0.477829 0.062849 0.876202
vn -0.477831 0.062849 0.876201
vn -0.477831 0.062849 0.876201
vn -0.477831 0.062849 0.876201
vn 0.000002 -0.551938 0.833885
vn 0.000002 -0.551938 0.833885
vn 0.000002 -0.551938 0.833885
vn 0.000002 -0.551938 0.833885
vn -0.000001 -0.551942 0.833883
vn -0.000001 -0.551942 0.833883
vn -0.000001 -0.551942 0.833883
vn -0.000001 -0.551942 0.833883
vn 0.000000 -0.551940 0.833884
vn 0.000000 -0.551940 0.833884
vn 0.000000 -0.551940 0.833884
vn 0.000000 -0.551940 0.833884
vn 0.000003 -0.551946 0.833880
vn 0.000003 -0.551946 0.833880
vn 0.000003 -0.551946 0.833880
vn 0.000003 -0.551946 0.833880
vn -0.000004 -0.551938 0.833885
vn -0.000004 -0.551938 0.833885
vn -0.000004 -0.551938 0.833885
vn -0.000004 -0.551938 0.833885
vn -0.340725 -0.766964 0.543758
vn -0.340725 -0.766964 0.543758
vn -0.340725 -0.766964 0.543758
vn -0.340725 -0.766964 0.543758
vn 0.340727 -0.766963 0.543758
vn 0.340727 -0.766963 0.543758
vn 0.340727 -0.766963 0.543758
vn 0.340727 -0.766963 0.543758
vn 0.094701 0.710445 0.697352
vn 0.094701 0.710445 0.697352
vn 0.094701 0.710445 0.697352
vn 0.094701 0.710445 0.697352
vn -0.393019 0.824313 -0.407485
vn -0.393019 0.824313 -0.407485
vn -0.393019 0.824313 -0.407485
vn -0.393019 0.824313 -0.407485
vn 0.500057 0.779378 -0.377509
vn 0.500057 0.779378 -0.377509
vn 0.500057 0.779378 -0.377509
vn 0.500057 0.779378 -0.377509
vn -0.713002 0.698248 0.063862
vn -0.713002 0.698248 0.063862
vn -0.713002 0.698248 0.063862
vn -0.713002 0.698248 0.063862
vn 0.386590 0.733055 0.559624
vn 0.386590 0.733055 0.559624
vn 0.386590 0.733055 0.559624
vn 0.386590 0.733055 0.559624
vn -0.041532 0.862446 -0.504442
vn -0.041532 0.862446 -0.504442
vn -0.041532 0.862446 -0.504442
vn -0.041532 0.862446 -0.504442
vn -0.530582 0.672367 0.516145
vn -0.530582 0.672367 0.516145
vn -0.530582 0.672367 0.516145
vn -0.530582 0.672367 0.516145
vn 0.768284 0.638300 0.048093
vn 0.768284 0.638300 0.048093
vn 0.768284 0.638300 0.048093
vn 0.768284 0.638300 0.048093
vn 0.125667 0.929692 0.346239
vn 0.125667 0.929692 0.346239
vn 0.125667 0.929692 0.346239
vn 0.125667 0.929692 0.346239
vn -0.106419 0.986308 -0.125982
vn -0.106419 0.986308 -0.125982
vn -0.106419 0.986308 -0.125982
vn -0.106419 0.986308 -0.125982
vn -0.027802 0.962889 0.268463
vn -0.027802 0.962889 0.268463
vn -0.027802 0.962889 0.268463
vn -0.027802 0.962889 0.268463
vn 0.207301 0.962888 0.172836
vn 0.207301 0.962888 0.172836
vn 0.207301 0.962888 0.172836
vn 0.207301 0.962888 0.172836
vn 0.151691 0.929692 0.335653
vn 0.151691 0.929692 0.335653
vn 0.151691 0.929692 0.335653
vn 0.151691 0.929692 0.335653
vn -0.011732 0.986308 -0.164496
vn -0.011732 0.986308 -0.164496
vn -0.011732 0.986308 -0.164496
vn -0.011732 0.986308 -0.164496
vn -0.152187 0.986705 0.057033
vn -0.152187 0.986705 0.057033
vn -0.152187 0.986705 0.057033
vn -0.152187 0.986705 0.057033
vn 0.148788 0.986705 -0.065389
vn 0.148788 0.986705 -0.065389
vn 0.148788 0.986705 -0.065389
vn 0.148788 0.986705 -0.065389
vn 0.063328 0.985774 0.155692
vn 0.063328 0.985774 0.155692
vn 0.063328 0.985774 0.155692
vn 0.063328 0.985774 0.155692
vn 0.063328 0.985774 0.155692
vn 0.063328 0.985774 0.155692
vn 0.063328 0.985774 0.155692
vn 0.063328 0.985774 0.155692
s off
g sea_shell
usemtl initialShadingGroup
f 13/1/1 16/3/2 15/4/3 14/2/4
f 13/5/5 18/64/6 17/63/7 16/6/8
f 15/9/9 20/66/10 19/65/11 14/10/12
f 14/13/13 22/68/14 21/67/15 13/14/16
f 16/17/17 24/70/18 23/69/19 15/18/20
f 21/72/21 18/71/22 13/20/23
f 14/22/24 19/74/25 22/73/26
f 16/25/27 17/76/28 24/75/29
f 23/78/30 20/77/31 15/29/32
f 1/31/33 2/32/34 4/33/35 3/34/36
f 1/35/37 3/36/38 6/37/39 5/38/40
f 4/39/41 2/40/42 7/41/43 8/42/44
f 2/43/45 1/44/46 9/45/47 10/46/48
f 3/47/49 4/48/50 12/49/51 11/50/52
f 9/51/53 1/52/54 5/53/55
f 2/54/56 10/55/57 7/56/58
f 3/57/59 11/58/60 6/59/61
f 12/60/62 4/61/63 8/62/64
f 6/7/65 17/63/66 18/64/67 5/8/68
f 7/11/69 19/65/70 20/66/71 8/12/72
f 9/15/73 21/67/74 22/68/75 10/16/76
f 5/21/77 18/71/78 21/72/79 9/19/80
f 10/23/81 22/73/82 19/74/83 7/24/84
f 11/26/85 24/75/86 17/76/87 6/27/88
f 8/30/89 20/77/90 23/78/91 12/28/92
f 35/79/93 36/80/94 37/81/95 38/82/96
f 35/83/97 38/84/98 39/85/99 40/86/100
f 37/87/101 36/88/102 41/89/103 42/90/104
f 36/91/105 35/92/106 43/93/107 44/94/108
f 38/95/109 37/96/110 23/97/111 24/98/112
f 43/99/113 35/100/114 40/101/115
f 36/102/116 44/103/117 41/104/118
f 38/105/119 24/106/120 39/107/121
f 23/108/122 37/109/123 42/110/124
f 25/111/125 27/112/126 28/113/127 26/114/128
f 25/115/129 29/116/130 30/117/131 27/118/132
f 28/119/133 32/120/134 31/121/135 26/122/136
f 26/123/137 34/124/138 33/125/139 25/126/140
f 27/127/141 11/128/142 12/129/143 28/130/144
f 33/131/145 29/132/146 25/133/147
f 26/134/148 31/135/149 34/136/150
f 27/137/151 30/138/152 11/139/153
f 12/140/154 32/141/155 28/142/156
f 30/143/157 29/144/158 40/86/159 39/85/160
f 31/145/161 32/146/162 42/90/163 41/89/164
f 33/147/165 34/148/166 44/94/167 43/93/168
f 29/149/169 33/150/170 43/99/171 40/101/172
f 34/151/173 31/152/174 41/104/175 44/103/176
f 11/153/177 30/154/178 39/107/179 24/106/180
f 32/155/181 12/156/182 23/108/183 42/110/184
f 45/157/185 53/158/186 54/159/187 47/160/188
f 49/161/189 55/162/190 56/163/191 51/164/192
f 59/165/193 60/166/194 52/167/195 50/168/196
f 51/169/197 57/170/198 58/171/199 49/172/200
f 54/159/201 53/158/202 46/173/203 48/174/204
f 56/163/205 55/162/206 50/175/207 52/176/208
f 58/171/209 57/170/210 45/157/211 47/160/212
f 46/173/213 60/166/214 59/165/215 48/174/216
f 47/177/217 54/178/218 62/179/219 61/180/220
f 55/181/221 49/182/222 63/183/223 64/184/224
f 58/185/225 47/186/226 61/187/227 65/188/228
f 48/189/229 59/190/230 67/191/231 66/192/232
f 54/193/233 48/194/234 66/195/235 62/196/236
f 50/197/237 55/198/238 64/199/239 68/200/240
f 49/201/241 58/202/242 65/203/243 63/204/244
f 59/205/245 50/206/246 68/207/247 67/208/248
f 62/196/249 66/192/250 67/208/251 68/200/252 64/184/253 63/204/254 65/188/255 61/180/256
